<svg width="0" height="0" class="hidden">
  <symbol xmlns="http://www.w3.org/2000/svg" viewBox="0 0 24 24" id="inst">
    <path clip-rule="evenodd" d="m7.46494 1.066c1.17334-.05378 1.54734-.066 4.53506-.066 2.9883 0 3.3617.01283 4.5344.066 1.1715.05317 1.9715.23956 2.6712.5115.7339.27631 1.3987.70924 1.9482 1.26867.5595.54943.9925 1.21429 1.2687 1.94822.2719.69972.4577 1.49967.5115 2.67055.0538 1.17334.066 1.54734.066 4.53506 0 2.9877-.0128 3.3617-.066 4.5351-.0532 1.1708-.2396 1.9708-.5115 2.6705-.2811.723-.6576 1.3371-1.2687 1.9482-.5494.5595-1.2143.9925-1.9482 1.2687-.6997.2719-1.4997.4577-2.6705.5115-1.1734.0538-1.5474.066-4.5351.066-2.98772 0-3.36172-.0128-4.53506-.066-1.17088-.0532-1.97083-.2396-2.67055-.5115-.72295-.2811-1.33711-.6576-1.94822-1.2687-.55953-.5494-.99249-1.2143-1.26867-1.9482-.27194-.6997-.45772-1.4997-.5115-2.6705-.05378-1.1734-.066-1.5468-.066-4.5351 0-2.98833.01283-3.36172.066-4.53444.05317-1.1715.23956-1.97145.5115-2.67117.27631-.73388.70924-1.39871 1.26867-1.94822.54942-.55953 1.21428-.99249 1.94822-1.26867.69972-.27194 1.49967-.45772 2.67055-.5115zm8.98026 1.98c-1.1599-.05256-1.5082-.06417-4.4452-.06417s-3.28533.01161-4.44522.06417c-1.0725.04889-1.65489.22794-2.04234.37889-.51333.19922-.88.43755-1.265.82255-.38438.385-.62333.75167-.82255 1.265-.15095.38745-.33.96984-.37889 2.04234-.05256 1.15989-.06417 1.50822-.06417 4.44522s.01161 3.2853.06417 4.4452c.04889 1.0725.22794 1.6549.37889 2.0424.17622.4778.4573.91.82255 1.265.3549.3652.78717.6463 1.265.8225.38745.151.96984.33 2.04234.3789 1.15989.0526 1.50761.0642 4.44522.0642 2.9376 0 3.2853-.0116 4.4452-.0642 1.0725-.0489 1.6549-.2279 2.0424-.3789.5133-.1992.88-.4375 1.265-.8225.3652-.3549.6463-.7872.8225-1.265.151-.3875.33-.9699.3789-2.0424.0526-1.1599.0642-1.5082.0642-4.4452s-.0116-3.28533-.0642-4.44522c-.0489-1.0725-.2279-1.65489-.3789-2.04234-.1992-.51333-.4375-.88-.8225-1.265-.385-.38438-.7517-.62333-1.265-.82255-.3875-.15095-.9699-.33-2.0424-.37889zm-5.8497 12.3449c.4453.1845.9225.2794 1.4045.2794.9735 0 1.907-.3867 2.5953-1.075.6884-.6883 1.0751-1.6219 1.0751-2.5953s-.3867-1.907-1.0751-2.59532c-.6883-.68832-1.6218-1.07502-2.5953-1.07502-.482 0-.9592.09494-1.4045.27939-.4454.18445-.84997.4548-1.19079.79563-.34082.34082-.61118.74542-.79563 1.19072s-.27938.9226-.27938 1.4046.09493.9593.27938 1.4046.45481.8499.79563 1.1907.74539.6112 1.19079.7956zm-2.59345-7.38889c1.06033-1.06033 2.49845-1.65602 3.99795-1.65602 1.4996 0 2.9377.59569 3.998 1.65602s1.656 2.49849 1.656 3.99799-.5957 2.9376-1.656 3.998c-1.0603 1.0603-2.4984 1.656-3.998 1.656-1.4995 0-2.93762-.5957-3.99795-1.656-1.06033-1.0604-1.65602-2.4985-1.65602-3.998s.59569-2.93766 1.65602-3.99799zm10.90565-.81363c.2506-.25065.3914-.59059.3914-.94505 0-.35447-.1408-.69441-.3914-.94505-.2507-.25064-.5906-.39145-.9451-.39145-.3544 0-.6944.14081-.945.39145-.2507.25064-.3915.59058-.3915.94505 0 .35446.1408.6944.3915.94505.2506.25064.5906.39145.945.39145.3545 0 .6944-.14081.9451-.39145z" fill-rule="evenodd"></path>
  </symbol>
  <symbol xmlns="http://www.w3.org/2000/svg" viewBox="0 0 24 24" id="vk">
    <path clip-rule="evenodd" d="m23.4493 5.94799c.1668-.54645 0-.94799-.794-.94799h-2.6256c-.6676 0-.9754.34687-1.1423.72936 0 0-1.3353 3.19671-3.2268 5.27314-.6119.6011-.8901.7924-1.2239.7924-.1669 0-.4173-.1913-.4173-.7377v-5.10921c0-.65574-.1849-.94799-.7413-.94799h-4.12597c-.41719 0-.6681.30434-.6681.59278 0 .62163.94571.76499 1.04319 2.51363v3.79779c0 .8326-.15309.9836-.4869.9836-.89009 0-3.05525-3.21098-4.33939-6.88519-.25166-.71414-.50407-1.00261-1.1751-1.00261h-2.625612c-.750174 0-.900218.34687-.900218.72936 0 .68308.890141 4.07103 4.14464 8.55184 2.16965 3.06 5.22654 4.7188 8.00816 4.7188 1.669 0 1.8755-.3684 1.8755-1.003v-2.3128c0-.7368.1581-.8839.6866-.8839.3894 0 1.057.1913 2.6147 1.6667 1.7803 1.7486 2.0738 2.533 3.0751 2.533h2.6257c.7501 0 1.1252-.3684.9088-1.0955-.2368-.7246-1.0867-1.7759-2.2145-3.0222-.612-.7104-1.53-1.4754-1.8082-1.858-.3894-.4917-.2781-.7103 0-1.1474 0 0 3.199-4.42623 3.5328-5.92891z" fill-rule="evenodd"></path>
  </symbol>
  <symbol xmlns="http://www.w3.org/2000/svg" viewBox="0 0 512 512" id="letter">
    <path d="m502.3 190.8c3.9-3.1 9.7-.2 9.7 4.7v204.5c0 26.5-21.5 48-48 48h-416c-26.5 0-48-21.5-48-48v-204.4c0-5 5.7-7.8 9.7-4.7 22.4 17.4 52.1 39.5 154.1 113.6 21.1 15.4 56.7 47.8 92.2 47.6 35.7.3 72-32.8 92.3-47.6 102-74.1 131.6-96.3 154-113.7zm-246.3 129.2c23.2.4 56.6-29.2 73.4-41.4 132.7-96.3 142.8-104.7 173.4-128.7 5.8-4.5 9.2-11.5 9.2-18.9v-19c0-26.5-21.5-48-48-48h-416c-26.5 0-48 21.5-48 48v19c0 7.4 3.4 14.3 9.2 18.9 30.6 23.9 40.7 32.4 173.4 128.7 16.8 12.2 50.2 41.8 73.4 41.4z"></path>
  </symbol>
  <symbol xmlns="http://www.w3.org/2000/svg" viewBox="0 0 384 512" id="marker">
    <path d="m172.268 501.67c-145.298-210.639-172.268-232.257-172.268-309.67 0-106.039 85.961-192 192-192s192 85.961 192 192c0 77.413-26.97 99.031-172.268 309.67-9.535 13.774-29.93 13.773-39.464 0zm19.732-229.67c44.183 0 80-35.817 80-80s-35.817-80-80-80-80 35.817-80 80 35.817 80 80 80z"></path>
  </symbol>
</svg>